<?xml version="1.0" standalone="no"?>
<!DOCTYPE svg PUBLIC "-//W3C//DTD SVG 20010904//EN"
 "http://www.w3.org/TR/2001/REC-SVG-20010904/DTD/svg10.dtd">
<svg version="1.0" xmlns="http://www.w3.org/2000/svg"
 width="1246.000000pt" height="300.000000pt" viewBox="0 0 1246.000000 300.000000"
 preserveAspectRatio="xMidYMid meet">

<g transform="translate(0.000000,300.000000) scale(0.100000,-0.100000)"
fill="#000000" stroke="none">
<path d="M0 1500 l0 -1500 2085 0 2085 0 0 1500 0 1500 -2085 0 -2085 0 0
-1500z m1860 954 c0 -113 0 -114 23 -114 l24 0 7 -238 c4 -130 4 -275 0 -321
l-7 -83 -56 7 c-31 4 -59 12 -62 17 -4 6 -4 146 -2 312 5 297 6 308 38 319 6
2 11 51 12 113 1 60 3 110 3 112 0 2 5 0 10 -3 6 -4 10 -55 10 -121z m-883
-41 c19 -138 0 -268 -58 -393 -37 -78 -86 -145 -194 -262 -128 -138 -168 -244
-131 -343 29 -76 77 -104 206 -120 71 -9 126 -38 151 -78 27 -42 24 -158 -5
-202 -12 -18 -21 -25 -24 -17 -2 7 3 24 12 37 21 32 20 42 -5 48 -16 4 -30 -2
-49 -23 -34 -37 -65 -44 -154 -37 -192 16 -356 128 -418 287 -16 41 -21 79
-22 150 -1 52 2 102 6 110 3 8 14 37 23 63 26 72 99 157 199 228 48 35 115 83
147 106 120 87 254 296 281 436 7 37 16 67 20 67 3 0 10 -26 15 -57z m753
-199 c0 -47 -4 -73 -10 -69 -5 3 -10 14 -10 24 0 25 -24 43 -52 39 -18 -2 -24
-10 -26 -36 -4 -35 -7 -37 -64 -45 l-37 -6 -3 46 c-3 53 -26 75 -55 57 -13 -8
-19 -27 -21 -66 l-3 -55 -51 -17 c-27 -9 -56 -16 -63 -16 -10 0 -110 -45 -155
-71 -115 -65 -152 -87 -193 -115 -44 -32 -73 -43 -65 -26 2 4 25 50 51 104 26
53 47 103 47 112 0 27 217 119 395 167 130 34 194 46 268 48 l47 1 0 -76z
m338 -152 c25 -4 25 1 26 -287 l1 -170 -58 3 c-44 3 -60 8 -68 23 -6 13 -9 94
-8 219 l3 198 28 6 28 6 0 108 c0 60 3 112 8 116 4 4 9 -43 12 -106 5 -108 6
-113 28 -116z m-78 143 c0 -60 -3 -75 -15 -75 -12 0 -15 15 -15 75 0 60 3 75
15 75 12 0 15 -15 15 -75z m410 -12 c118 -44 208 -89 319 -160 122 -77 145
-94 239 -181 46 -42 88 -78 93 -80 5 -2 9 -8 9 -14 0 -6 19 -32 43 -58 115
-128 117 -134 61 -145 -20 -3 -51 -14 -70 -23 l-34 -16 -68 74 c-115 126 -241
250 -255 250 -8 0 -24 12 -38 26 -32 35 -147 105 -242 149 -93 43 -183 72
-297 95 l-85 17 -3 68 c-2 43 1 71 8 75 17 10 209 -36 320 -77z m-900 -118 l0
-115 25 0 c28 0 28 6 25 -230 -1 -121 -2 -126 -29 -160 -23 -28 -36 -35 -66
-36 l-37 -1 3 211 4 211 25 5 25 5 -3 113 c-3 97 -2 112 12 112 14 0 16 -17
16 -115z m180 -5 l0 -110 25 0 c20 0 25 -5 25 -27 0 -21 -3 -24 -12 -15 -14
14 -37 15 -57 3 -7 -5 -19 -45 -27 -91 -20 -129 -34 -124 -34 12 l0 117 28 3
27 3 -3 85 c-3 90 2 130 18 130 6 0 10 -45 10 -110z m540 -125 c0 -104 0 -105
24 -105 29 0 32 -22 28 -197 l-4 -121 -56 -4 c-31 -2 -60 -1 -65 2 -4 4 -6 76
-5 161 3 151 3 154 26 157 21 3 22 7 22 108 0 86 3 104 15 104 12 0 15 -18 15
-105z m-900 -30 c0 -84 0 -85 24 -85 l25 0 3 -141 c5 -212 1 -244 -27 -257
-15 -7 -26 -8 -30 -2 -4 6 -19 10 -35 10 -22 0 -30 -5 -33 -22 -3 -13 -4 75
-3 194 l1 218 28 0 c26 0 28 3 26 33 -4 66 1 137 11 137 6 0 10 -35 10 -85z
m1078 12 c3 -42 6 -47 27 -47 22 0 24 -4 30 -82 4 -52 3 -93 -4 -111 -14 -37
-14 -72 0 -42 8 17 9 17 4 -5 -2 -14 -5 -44 -5 -67 0 -41 -1 -43 -30 -43 -16
0 -45 -8 -65 -17 -19 -9 -37 -15 -39 -12 -2 2 -2 86 1 187 6 181 6 182 30 188
20 5 23 12 23 56 0 65 24 61 28 -5z m-673 -211 c15 -121 -32 -259 -129 -383
-69 -88 -177 -177 -132 -108 22 34 20 38 -9 19 -26 -17 -34 -7 -13 14 10 10 6
12 -17 10 -22 -1 -45 8 -77 33 -50 36 -58 49 -32 49 39 0 133 60 204 130 62
62 81 88 106 150 42 101 54 141 54 177 0 79 32 14 45 -91z m-753 -13 c3 -114
4 -118 26 -121 19 -3 22 -10 23 -50 1 -26 2 -63 3 -82 l1 -35 -60 -11 c-33 -6
-63 -9 -67 -7 -5 2 -8 46 -8 96 l0 93 28 -1 27 0 -4 118 c-3 102 -1 117 12
117 14 0 17 -18 19 -117z m1783 69 c1 -9 2 -54 3 -99 2 -82 2 -83 28 -83 26 0
26 -1 22 -65 -2 -35 -6 -67 -9 -70 -3 -3 -34 -8 -68 -12 l-63 -6 6 68 c6 66
16 85 44 85 9 0 12 26 12 98 0 92 5 120 19 106 3 -3 6 -13 6 -22z m-1615 -123
l0 -109 30 0 30 0 0 -74 0 -73 -52 4 c-80 7 -78 5 -78 78 0 63 1 65 25 65 l25
0 0 116 c0 74 4 113 10 109 6 -4 10 -53 10 -116z m1440 5 c0 -62 1 -65 23 -62
21 3 22 0 23 -79 2 -84 -6 -100 -28 -62 -7 11 -32 29 -55 40 -40 18 -43 22
-43 59 0 32 4 39 23 42 20 3 22 9 25 66 2 46 7 62 17 62 12 0 15 -15 15 -66z
m-1790 -34 c0 -25 4 -30 25 -30 25 0 25 -1 25 -81 l0 -82 -56 6 c-31 3 -58 7
-59 9 -2 2 -7 36 -10 76 l-8 72 32 0 c28 0 31 3 26 20 -7 21 0 40 16 40 5 0 9
-13 9 -30z m2565 -144 c82 -49 122 -143 110 -261 -7 -59 -6 -63 33 -124 69
-106 109 -256 103 -383 -2 -47 -18 -31 -24 25 -7 65 -50 183 -55 150 -2 -12 2
-31 7 -42 20 -37 24 -133 8 -181 l-15 -45 -7 60 c-11 99 -44 199 -60 183 -4
-3 1 -21 11 -39 14 -28 16 -50 10 -138 -3 -58 -10 -109 -15 -114 -4 -4 -10 31
-13 80 -5 89 -31 171 -59 188 -9 6 -10 3 -4 -11 25 -59 34 -141 25 -214 -6
-41 -14 -78 -19 -83 -5 -5 -11 37 -13 95 -4 83 -9 111 -27 146 -21 38 -41 62
-41 48 0 -3 6 -23 14 -43 23 -60 39 -142 31 -161 -3 -9 -8 -31 -10 -48 -11
-82 -22 -77 -27 12 -4 69 -11 102 -32 147 -15 31 -32 57 -37 57 -5 0 -3 -12 4
-27 8 -16 20 -59 28 -96 11 -61 11 -76 -5 -135 -9 -37 -24 -74 -32 -82 -14
-13 -15 -12 -8 15 4 17 11 38 16 47 10 21 -7 150 -25 193 -35 81 -63 128 -105
181 -65 80 -77 79 -43 -3 48 -111 74 -229 67 -298 -3 -32 -11 -64 -16 -69 -6
-6 -10 -19 -10 -31 0 -23 -58 -121 -67 -112 -3 3 8 32 23 64 25 51 28 69 28
148 0 60 -5 102 -16 125 -16 35 -16 35 -12 -50 4 -108 -11 -171 -54 -238 -49
-76 -58 -74 -18 5 43 86 48 114 36 187 -14 84 -27 89 -24 9 3 -58 -1 -77 -27
-131 -31 -66 -50 -79 -30 -21 18 53 14 191 -9 251 -18 49 -77 134 -86 125 -2
-2 5 -39 17 -83 23 -88 21 -166 -7 -247 -16 -47 -44 -83 -44 -56 1 8 7 25 15
39 16 28 20 86 6 94 -4 3 -14 -14 -20 -37 -15 -48 -51 -117 -62 -117 -5 0 -2
19 6 41 17 47 19 79 6 79 -5 0 -14 -15 -20 -33 -6 -17 -21 -48 -33 -67 l-22
-35 -5 29 c-9 46 -26 41 -40 -11 l-13 -48 -13 48 c-16 64 -22 66 -30 15 -12
-70 -24 -80 -25 -20 0 54 -13 92 -30 92 -6 0 -10 -25 -10 -55 0 -74 -18 -112
-77 -165 -57 -51 -166 -110 -203 -110 -47 0 -54 17 -10 23 46 6 187 82 201
109 8 15 6 18 -14 18 -32 0 -87 -20 -87 -31 0 -5 -9 -9 -20 -9 -12 0 -35 -7
-52 -16 -18 -9 -54 -16 -85 -15 -53 0 -134 28 -147 50 -10 16 1 14 34 -6 23
-13 34 -14 54 -5 30 13 72 83 81 135 8 43 -2 47 -43 18 -55 -38 -169 -54 -192
-26 -22 26 8 81 113 211 l100 125 -17 74 c-32 134 0 225 113 320 36 31 103 75
149 97 45 23 82 45 82 49 0 12 -52 45 -83 53 -39 9 -90 -18 -113 -59 -15 -28
-20 -32 -27 -19 -23 41 19 139 68 160 73 30 141 10 201 -61 l39 -46 87 31 c77
26 101 30 197 30 108 0 109 0 161 36 87 60 127 74 197 70 44 -3 75 -11 108
-30z m-2204 -149 c161 -43 207 -85 346 -317 78 -131 87 -151 92 -210 6 -59 16
-81 110 -245 57 -98 104 -189 104 -202 0 -29 -28 -71 -56 -84 -12 -6 -30 -23
-39 -40 -22 -38 -54 -50 -87 -32 -14 7 -39 13 -56 14 -16 1 -41 5 -55 9 -17 6
4 8 61 7 86 -2 87 -1 125 33 22 19 49 42 62 50 12 8 23 26 24 40 3 23 -1 25
-52 31 -62 7 -105 22 -115 39 -6 9 1 10 24 5 17 -4 31 -4 31 -2 0 3 -13 37
-30 75 -16 39 -30 77 -30 85 0 15 -29 27 -66 27 -29 0 -86 62 -84 91 1 13 2
39 1 57 -1 28 -4 32 -29 32 -33 0 -61 18 -124 78 -47 45 -48 45 -86 34 -77
-23 -108 -15 -103 25 1 10 -5 10 -24 3 -36 -14 -40 -13 -25 5 18 22 5 30 -27
16 l-28 -11 25 20 c47 38 51 42 47 47 -3 2 -19 -3 -36 -11 -47 -25 -48 -19 -3
20 23 19 42 40 42 45 0 15 -27 10 -34 -6 -3 -8 -12 -15 -19 -15 -11 0 -12 12
-6 55 12 88 -22 168 -88 210 -40 25 -41 32 -5 38 67 10 133 5 213 -16z m-820
-308 c-18 -17 -41 -50 -53 -73 -11 -22 -24 -43 -28 -46 -3 -3 -9 -13 -13 -23
-5 -15 -3 -16 12 -7 11 5 21 15 24 22 2 7 7 10 11 7 4 -4 -3 -22 -14 -42 -11
-19 -19 -41 -18 -48 2 -9 -5 -13 -17 -11 -57 7 -88 13 -96 18 -5 3 14 33 42
67 68 81 169 180 176 173 3 -3 -9 -19 -26 -37z m330 -54 c17 -11 -18 -23 -73
-24 -21 -1 -38 -5 -38 -11 0 -16 77 -50 115 -50 22 0 34 -4 30 -10 -9 -15 -76
-12 -125 5 -53 19 -51 19 -43 -2 6 -16 4 -16 -15 1 -19 16 -22 17 -22 3 0 -19
54 -65 87 -73 14 -4 58 -4 99 -1 74 5 81 3 66 -21 -12 -18 -124 -7 -181 19
-26 11 -61 34 -79 52 -36 35 -67 96 -55 108 19 18 205 21 234 4z m606 -167 c6
-7 13 -25 17 -40 5 -22 3 -28 -9 -28 -20 0 -65 44 -65 65 0 18 43 21 57 3z
m-424 -314 c33 -63 89 -117 152 -145 28 -12 45 -24 39 -26 -21 -7 -120 45
-161 85 -67 65 -108 167 -81 200 11 12 14 8 20 -26 3 -22 18 -62 31 -88z
m1907 -206 c41 -21 117 -104 106 -115 -3 -3 -22 8 -43 24 -85 67 -171 96 -243
83 -46 -8 -53 1 -12 17 50 20 143 15 192 -9z m-1295 -153 c41 -6 58 -3 88 14
39 22 57 26 57 13 0 -12 -41 -34 -73 -39 -16 -3 -39 -8 -51 -12 -35 -13 -137
31 -150 65 -4 10 8 7 37 -10 23 -14 65 -28 92 -31z"/>
<path d="M361 1640 c-31 -50 -51 -125 -51 -190 0 -163 104 -308 272 -377 87
-35 244 -45 273 -17 18 19 16 19 -101 25 -103 4 -127 9 -177 33 -58 28 -157
114 -157 137 0 7 16 -6 35 -28 40 -47 129 -96 211 -118 54 -14 90 -13 48 1
-100 33 -185 95 -211 153 -44 98 -56 227 -28 294 19 45 19 53 1 37 -23 -18
-45 -98 -47 -168 -2 -44 -5 -60 -13 -52 -14 14 -21 147 -8 173 16 34 33 90 28
94 -19 19 -66 -137 -66 -220 0 -60 -16 -53 -26 11 -8 52 7 141 32 191 23 45
11 62 -15 21z"/>
<path d="M498 1477 c-11 -27 -10 -141 2 -173 17 -43 66 -100 117 -133 25 -17
51 -31 57 -31 6 0 -2 9 -19 19 -96 61 -137 131 -144 251 -4 52 -9 78 -13 67z"/>
<path d="M3243 1380 c56 -35 60 -45 12 -24 -19 7 -45 14 -57 14 -33 -1 -99
-32 -139 -67 -19 -17 -43 -33 -54 -35 -15 -3 -10 -7 20 -17 82 -28 154 -71
208 -127 31 -32 60 -53 66 -50 6 4 21 26 32 49 18 34 21 53 17 111 -3 39 -12
85 -21 103 -19 36 -73 73 -108 73 -19 0 -14 -5 24 -30z"/>
<path d="M3344 1335 c12 -18 20 -54 24 -107 6 -89 22 -87 22 2 0 58 -24 120
-50 128 -11 4 -10 -1 4 -23z"/>
<path d="M2481 860 c-30 -21 -56 -30 -83 -30 -25 0 -41 -5 -44 -15 -6 -14 75
-155 99 -172 7 -5 30 -6 52 -3 l40 6 -30 14 -30 13 39 7 c36 7 86 49 86 73 0
4 11 7 25 7 35 0 31 16 -7 36 -41 21 -88 64 -88 81 0 19 -10 16 -59 -17z m31
-85 c0 -5 -5 -11 -11 -13 -6 -2 -11 4 -11 13 0 9 5 15 11 13 6 -2 11 -8 11
-13z"/>
<path d="M1432 915 c42 -82 49 -102 46 -140 -3 -40 -1 -45 17 -45 19 0 45 38
45 65 0 31 -106 187 -141 205 -12 7 -1 -21 33 -85z"/>
<path d="M6770 1495 l0 -325 70 0 70 0 0 144 c0 137 1 146 23 172 17 19 33 27
56 27 60 0 66 -16 69 -188 l3 -155 70 0 70 0 -3 168 c-3 184 -14 225 -71 266
-43 32 -122 29 -175 -7 l-42 -27 0 125 0 125 -70 0 -70 0 0 -325z"/>
<path d="M10590 1495 l0 -325 70 0 70 0 0 73 c0 60 4 77 19 91 18 17 21 14 71
-73 l52 -91 84 0 c65 0 83 3 78 13 -4 6 -45 67 -90 133 l-83 121 56 64 c31 35
68 76 82 92 l25 27 -86 0 -86 0 -59 -91 -58 -91 -3 191 -2 191 -70 0 -70 0 0
-325z"/>
<path d="M8147 1792 c-51 -56 17 -143 86 -111 70 32 46 129 -33 129 -23 0 -43
-7 -53 -18z"/>
<path d="M5072 1781 c-103 -36 -154 -117 -130 -211 14 -53 76 -107 159 -139
103 -39 133 -85 86 -129 -19 -18 -35 -22 -84 -22 -33 0 -80 7 -103 15 -23 8
-43 15 -45 15 -4 0 -27 -112 -23 -115 17 -17 142 -37 198 -32 112 10 178 49
206 122 38 101 -2 184 -114 235 -121 55 -137 66 -140 95 -2 16 4 35 15 47 16
17 27 19 88 15 38 -3 80 -8 91 -12 19 -6 23 -1 34 45 15 61 12 63 -63 80 -68
14 -114 12 -175 -9z"/>
<path d="M9010 1767 c0 -30 -28 -464 -35 -539 l-5 -58 65 0 c60 0 65 2 66 23
0 12 6 119 13 237 l12 215 22 -95 c13 -52 40 -156 61 -230 l38 -135 54 -3 55
-3 67 218 c37 120 68 225 69 233 3 38 16 -137 17 -240 1 -63 4 -139 7 -167 l7
-53 63 0 64 0 0 53 c0 28 -7 162 -15 297 -8 135 -15 251 -15 258 0 10 -22 12
-91 10 l-90 -3 -39 -120 c-21 -66 -49 -160 -63 -210 l-24 -90 -11 45 c-7 25
-33 120 -58 213 l-47 167 -93 0 c-91 0 -94 -1 -94 -23z"/>
<path d="M6508 1728 l-48 -10 0 -49 c0 -48 -1 -49 -30 -49 -29 0 -30 -1 -30
-49 0 -47 2 -50 28 -53 l27 -3 5 -135 c6 -153 16 -181 75 -206 36 -15 94 -18
133 -8 19 6 22 13 22 58 l0 52 -35 0 c-54 0 -60 12 -60 132 l0 107 48 3 47 3
0 50 0 49 -50 0 -50 0 0 60 c0 67 3 66 -82 48z"/>
<path d="M7860 1726 c-45 -12 -45 -12 -48 -59 -3 -45 -5 -47 -33 -47 -28 0
-29 -1 -29 -50 0 -49 1 -50 30 -50 l30 0 0 -87 c0 -138 14 -203 49 -235 35
-32 84 -43 147 -33 l45 6 -3 52 c-3 52 -3 52 -36 52 -52 0 -62 22 -62 142 l0
103 50 0 50 0 0 50 0 50 -50 0 -50 0 0 60 c0 68 -3 69 -90 46z"/>
<path d="M11628 1728 l-48 -10 0 -49 c0 -48 -1 -49 -30 -49 -29 0 -30 -1 -30
-49 0 -47 2 -50 28 -53 l27 -3 5 -135 c6 -153 16 -181 75 -206 36 -15 94 -18
133 -8 19 6 22 13 22 58 l0 52 -35 0 c-54 0 -60 12 -60 132 l0 107 48 3 47 3
0 50 0 49 -50 0 -50 0 0 60 c0 67 3 66 -82 48z"/>
<path d="M6116 1620 c-16 -5 -41 -21 -56 -35 l-27 -26 -6 30 c-6 31 -7 31 -68
31 l-62 0 7 -52 c3 -29 6 -131 6 -225 l0 -173 70 0 70 0 0 149 c0 130 2 152
18 172 26 31 78 31 104 0 16 -20 18 -42 18 -172 l0 -149 70 0 70 0 0 163 c0
149 -2 166 -22 207 -13 24 -34 52 -48 62 -30 21 -104 31 -144 18z"/>
<path d="M7439 1616 c-97 -34 -149 -114 -149 -228 0 -77 14 -114 63 -166 52
-54 160 -75 267 -51 72 15 69 13 59 61 -6 23 -11 44 -13 45 -1 1 -28 -2 -61
-7 -70 -11 -128 0 -161 31 -47 44 -36 49 121 49 l145 0 0 53 c0 166 -126 265
-271 213z m124 -108 c9 -11 17 -31 17 -44 0 -23 -2 -24 -80 -24 -70 0 -80 2
-80 18 0 24 28 62 54 72 29 13 68 3 89 -22z"/>
<path d="M8527 1616 c-96 -27 -158 -104 -165 -206 -12 -168 102 -268 280 -246
75 10 79 14 70 66 l-8 45 -56 -3 c-94 -6 -148 39 -148 123 0 83 56 130 146
123 l53 -5 10 46 c5 25 6 49 2 54 -15 15 -135 17 -184 3z"/>
<path d="M9855 1620 c-22 -4 -52 -13 -67 -19 -25 -10 -27 -12 -17 -43 6 -18
12 -38 14 -45 3 -9 12 -9 39 2 41 17 119 20 147 5 10 -6 19 -19 19 -29 0 -15
-11 -20 -57 -25 -32 -4 -82 -19 -112 -33 -42 -20 -57 -34 -72 -67 -10 -22 -19
-54 -19 -71 0 -39 32 -90 72 -116 43 -26 125 -22 168 9 36 27 40 27 40 2 0
-18 7 -20 63 -20 l63 0 -4 168 c-5 192 -16 230 -84 265 -43 22 -134 30 -193
17z m145 -274 c0 -47 -33 -86 -74 -86 -39 0 -56 15 -56 50 0 42 37 68 98 69
30 1 32 -1 32 -33z"/>
<path d="M10444 1616 c-17 -8 -43 -29 -57 -47 l-27 -34 0 43 0 42 -60 0 -60 0
0 -225 0 -225 70 0 70 0 0 125 c0 139 10 173 55 193 14 7 39 12 55 12 l30 0 0
65 c0 61 -1 65 -22 65 -13 -1 -37 -7 -54 -14z"/>
<path d="M11194 1614 c-110 -39 -170 -176 -134 -306 23 -80 100 -136 199 -145
56 -5 168 10 183 25 6 6 -5 79 -14 87 -1 1 -30 -1 -63 -6 -76 -10 -133 2 -162
36 -13 14 -23 30 -23 36 0 5 61 9 145 9 l145 0 0 63 c-1 162 -127 254 -276
201z m129 -106 c9 -11 17 -31 17 -44 0 -23 -2 -24 -80 -24 -49 0 -80 4 -80 10
0 23 32 72 53 80 30 13 69 3 90 -22z"/>
<path d="M11986 1616 c-22 -8 -53 -29 -70 -46 -27 -27 -31 -37 -31 -87 0 -51
3 -58 35 -85 19 -17 60 -40 90 -52 42 -17 56 -28 58 -45 2 -13 -2 -28 -10 -32
-21 -14 -85 -10 -125 6 -19 8 -37 15 -38 15 -8 0 -25 -94 -18 -101 17 -17 122
-31 177 -25 67 9 115 39 140 89 37 77 -4 149 -109 191 -69 28 -86 46 -65 71
11 13 25 16 65 12 27 -2 56 -6 64 -8 9 -3 19 11 27 39 13 42 13 43 -14 53 -46
18 -134 20 -176 5z"/>
<path d="M5380 1615 c0 -3 38 -100 85 -217 84 -210 84 -211 67 -240 -9 -16
-38 -39 -64 -51 -31 -14 -46 -27 -43 -37 28 -108 24 -102 53 -95 127 31 178
109 301 454 l68 191 -73 0 -73 0 -9 -32 c-5 -18 -22 -86 -37 -150 -16 -64 -32
-115 -36 -113 -3 3 -9 19 -13 36 -3 17 -22 82 -41 145 l-36 114 -75 0 c-41 0
-74 -2 -74 -5z"/>
<path d="M8130 1395 l0 -225 70 0 70 0 0 225 0 225 -70 0 -70 0 0 -225z"/>
</g>
</svg>
